HIERARCHY
ROOT SpineBase
{
  OFFSET 0.000000 0.000000 0.000000
  CHANNELS 6 Xposition Yposition Zposition Zrotation Xrotation Yrotation
  JOINT SpineMid
  {
    OFFSET -0.000000 31.319798 0.000000
    CHANNELS 3 Zrotation Xrotation Yrotation
    JOINT SpineShoulder
    {
      OFFSET 0.212060 23.171289 -0.764592
      CHANNELS 3 Zrotation Xrotation Yrotation
      JOINT Neck
      {
        OFFSET 0.143000 7.638877 -0.583254
        CHANNELS 3 Zrotation Xrotation Yrotation
        JOINT Head
        {
          OFFSET 0.307788 12.458842 -1.772817
          CHANNELS 3 Zrotation Xrotation Yrotation
          End Site
          {
            OFFSET 0 0 0
          }
        }
      }
      JOINT ShoulderLeft
      {
        OFFSET -17.716916 -2.737079 -0.013137
        CHANNELS 3 Zrotation Xrotation Yrotation
        JOINT ElbowLeft
        {
          OFFSET -6.110701 -29.733260 -0.312963
          CHANNELS 3 Zrotation Xrotation Yrotation
          JOINT WristLeft
          {
            OFFSET -0.463725 -23.056259 -6.771448
            CHANNELS 3 Zrotation Xrotation Yrotation
            JOINT HandLeft
            {
              OFFSET -0.430601 -2.895226 0.329443
              CHANNELS 3 Zrotation Xrotation Yrotation
              JOINT HandTipLeft
              {
                OFFSET 0.091243 -6.910699 -0.300123
                CHANNELS 3 Zrotation Xrotation Yrotation
                End Site
                {
                  OFFSET 0 0 0
                }
              }
              JOINT ThumbLeft
              {
                OFFSET 2.644473 0.576928 -0.554316
                CHANNELS 3 Zrotation Xrotation Yrotation
                End Site
                {
                  OFFSET 0 0 0
                }
              }
            }
          }
        }
      }
      JOINT ShoulderRight
      {
        OFFSET 17.020900 -2.996666 -0.776978
        CHANNELS 3 Zrotation Xrotation Yrotation
        JOINT ElbowRight
        {
          OFFSET 4.925174 -26.916074 -2.604856
          CHANNELS 3 Zrotation Xrotation Yrotation
          JOINT WristRight
          {
            OFFSET 2.181018 -22.685360 -7.944774
            CHANNELS 3 Zrotation Xrotation Yrotation
            JOINT HandRight
            {
              OFFSET -1.482477 -4.819540 -0.924252
              CHANNELS 3 Zrotation Xrotation Yrotation
              JOINT HandTipRight
              {
                OFFSET -0.637003 -7.495815 -1.768357
                CHANNELS 3 Zrotation Xrotation Yrotation
                End Site
                {
                  OFFSET 0 0 0
                }
              }
              JOINT ThumbRight
              {
                OFFSET 1.888743 -4.712514 -3.221543
                CHANNELS 3 Zrotation Xrotation Yrotation
                End Site
                {
                  OFFSET 0 0 0
                }
              }
            }
          }
        }
      }
    }
  }
  JOINT HipLeft
  {
    OFFSET -7.002270 0.147127 -3.681309
    CHANNELS 3 Zrotation Xrotation Yrotation
    JOINT KneeLeft
    {
      OFFSET -2.739047 -31.370855 3.904578
      CHANNELS 3 Zrotation Xrotation Yrotation
      JOINT AnkleLeft
      {
        OFFSET -5.949897 -38.893581 11.697934
        CHANNELS 3 Zrotation Xrotation Yrotation
        JOINT FootLeft
        {
          OFFSET 0.385453 -4.182406 -14.097446
          CHANNELS 3 Zrotation Xrotation Yrotation
          End Site
          {
            OFFSET 0 0 0
          }
        }
      }
    }
  }
  JOINT HipRight
  {
    OFFSET 8.481290 0.888699 -3.704692
    CHANNELS 3 Zrotation Xrotation Yrotation
    JOINT KneeRight
    {
      OFFSET 6.354379 -37.197326 0.635205
      CHANNELS 3 Zrotation Xrotation Yrotation
      JOINT AnkleRight
      {
        OFFSET 5.385907 -33.441444 4.391954
        CHANNELS 3 Zrotation Xrotation Yrotation
        JOINT FootRight
        {
          OFFSET -0.381717 -4.546948 -12.564084
          CHANNELS 3 Zrotation Xrotation Yrotation
          End Site
          {
            OFFSET 0 0 0
          }
        }
      }
    }
  }
}
MOTION
Frames: 8
Frame Time: 0.033333
-76.147808 76.931748 386.376354 0.000000 0.000000 0.086527 -0.000000 0.000000 -0.086527 -0.000000 0.000000 0.000000 -0.000000 0.000000 0.000000 0.000000 0.000000 0.000000 -0.000000 0.000000 0.000000 -0.000000 0.000000 0.000000 -0.000000 0.000000 0.000000 -0.000000 0.000000 0.000000 0.000000 0.000000 0.000000 0.000000 0.000000 0.000000 -0.000000 0.000000 0.000000 -0.000000 0.000000 0.000000 -0.000000 0.000000 0.000000 -0.000000 0.000000 0.000000 0.000000 0.000000 0.000000 0.000000 0.000000 0.000000 -0.000000 0.000000 -0.086527 -0.000000 0.000000 0.000000 -0.000000 0.000000 0.000000 0.000000 0.000000 0.000000 -0.000000 0.000000 -0.086527 -0.000000 0.000000 0.000000 -0.000000 0.000000 0.000000 0.000000 0.000000 0.000000
-76.104750 76.929463 386.353834 -0.014424 -0.004602 -0.120148 0.014415 0.004632 0.120147 -0.000000 0.000000 0.000000 -0.000000 0.000000 0.000000 0.000000 0.000000 0.000000 1.035559 -0.191699 0.030287 0.088324 -1.796593 -0.302897 10.276979 -1.252046 2.050198 -10.296840 3.541271 -1.561125 0.000000 0.000000 0.000000 0.000000 0.000000 0.000000 -0.000000 0.000000 0.000000 -0.000000 0.000000 0.000000 0.595412 -3.031937 0.839997 -1.225697 4.072569 -0.692879 0.000000 0.000000 0.000000 0.000000 0.000000 0.000000 0.014415 0.004632 0.120147 -0.000000 0.000000 0.000000 -0.000000 0.000000 0.000000 0.000000 0.000000 0.000000 0.014415 0.004632 0.120147 -0.000000 0.000000 0.000000 0.448999 -3.416253 -1.025196 0.000000 0.000000 0.000000
-76.069375 76.926981 386.338882 -0.002461 0.003165 -0.289953 0.002477 -0.003152 0.289953 -0.000000 0.000000 0.000000 -0.000000 0.000000 0.000000 0.000000 0.000000 0.000000 1.906657 -0.359083 0.059909 0.147592 -3.302206 -0.530512 17.480754 -1.682561 3.386991 -17.644566 6.217512 -2.294933 0.000000 0.000000 0.000000 0.000000 0.000000 0.000000 -0.000000 0.000000 0.000000 -0.000000 0.000000 0.000000 0.902780 -5.456579 1.567616 -1.658725 7.379493 -1.324609 0.000000 0.000000 0.000000 0.000000 0.000000 0.000000 0.002477 -0.003152 0.289953 -0.000000 0.000000 0.000000 -0.000000 0.000000 0.000000 0.000000 0.000000 0.000000 0.002477 -0.003152 0.289953 -0.000000 0.000000 0.000000 0.790810 -6.526019 -1.890412 0.000000 0.000000 0.000000
-76.041682 76.924304 386.331496 0.035914 0.023309 -0.422811 -0.035741 -0.023574 0.422796 -0.000000 0.000000 0.000000 -0.000000 0.000000 0.000000 0.000000 0.000000 0.000000 2.604335 -0.500762 0.087294 0.187873 -4.509030 -0.696349 21.637039 -1.587918 4.052955 -22.132397 7.916637 -2.565353 0.000000 0.000000 0.000000 0.000000 0.000000 0.000000 -0.755644 -0.475213 -0.016987 0.755529 0.475396 0.010719 0.941106 -7.362743 2.180099 -1.326238 9.977703 -2.018909 0.000000 0.000000 0.000000 0.000000 0.000000 0.000000 -0.035741 -0.023574 0.422796 -0.000000 0.000000 0.000000 0.256140 -0.028895 -0.866502 0.000000 0.000000 0.000000 -0.035741 -0.023574 0.422796 -0.000000 0.000000 0.000000 1.040210 -9.283098 -2.592018 0.000000 0.000000 0.000000
-76.021672 76.921430 386.331678 0.100698 0.055829 -0.518681 -0.100189 -0.056739 0.518582 -0.000000 0.000000 0.000000 -1.075805 0.154096 -0.155439 0.000000 0.000000 0.000000 3.122033 -0.615717 0.111080 0.217254 -5.413690 -0.811555 23.052230 -1.165301 4.198829 -24.056837 8.705574 -2.610706 0.000000 0.000000 0.000000 0.000000 0.000000 0.000000 -0.952596 -0.608172 -0.024200 0.952393 0.608491 0.014086 0.725682 -8.823112 2.680558 -0.225632 11.908551 -2.863800 0.000000 0.000000 0.000000 0.000000 0.000000 0.000000 -0.100189 -0.056739 0.518582 -0.000000 0.000000 0.000000 0.302988 -0.027900 -1.024331 0.000000 0.000000 0.000000 -0.100189 -0.056739 0.518582 -0.000000 0.000000 0.000000 1.211823 -11.655328 -3.127257 0.000000 0.000000 0.000000
-76.009344 76.918361 386.339427 0.191861 0.100710 -0.577561 -0.190836 -0.102638 0.577222 -0.000000 0.000000 0.000000 -1.496873 0.131068 -0.214499 0.000000 0.000000 0.000000 3.455587 -0.703271 0.130183 0.241416 -6.015340 -0.884601 21.833712 -0.465938 3.944918 -23.508617 8.619362 -2.529577 0.000000 0.000000 0.000000 0.000000 0.000000 0.000000 -1.122380 -0.728521 -0.031897 1.122065 0.729006 0.017623 0.268207 -9.894591 3.075458 1.665621 13.190397 -3.918402 0.000000 0.000000 0.000000 0.000000 0.000000 0.000000 -0.190836 -0.102638 0.577222 -0.000000 0.000000 0.000000 0.330669 -0.021279 -1.116840 0.000000 0.000000 0.000000 -0.190836 -0.102638 0.577222 -0.000000 0.000000 0.000000 1.318926 -13.621956 -3.493784 0.000000 0.000000 0.000000
-76.006099 76.915007 386.361046 0.326427 0.163541 -0.635146 -0.324595 -0.167147 0.634206 -0.000000 0.000000 0.000000 -2.058646 0.113565 -0.293640 0.000000 0.000000 0.000000 3.543812 -0.778263 0.147662 0.101484 -5.935753 -0.888781 20.539890 -1.507497 4.216275 -23.790203 9.747024 -2.096096 0.000000 0.000000 0.000000 0.000000 0.000000 0.000000 -1.324960 -0.869013 -0.040951 1.324491 0.869728 0.020850 -0.764813 -10.850756 3.476843 5.613693 13.534528 -5.732261 0.000000 0.000000 0.000000 0.000000 0.000000 0.000000 -0.324595 -0.167147 0.634206 -0.000000 0.000000 0.000000 0.348237 -0.008002 -1.174411 0.000000 0.000000 0.000000 -0.324595 -0.167147 0.634206 -0.000000 0.000000 0.000000 1.474855 -15.896661 -4.118869 0.000000 0.000000 0.000000
-76.015351 76.914380 386.397576 0.482520 0.246329 -0.562828 0.302543 0.150177 0.583783 0.201203 0.081618 0.044182 -3.651560 -0.381938 -0.471589 0.000000 0.000000 0.000000 2.625210 -1.249090 0.105182 0.155103 -6.047210 -0.911884 8.000997 -2.919644 3.649755 -13.029690 10.519264 -1.424509 0.000000 0.000000 0.000000 0.000000 0.000000 0.000000 -2.440613 -1.476272 -0.138868 1.450091 1.005254 0.030786 -1.813054 -12.189641 3.978344 10.186331 15.084022 -8.167735 0.000000 0.000000 0.000000 0.000000 0.000000 0.000000 -0.480082 -0.251049 0.560739 -0.000000 0.000000 0.000000 0.308613 0.018258 -1.037753 0.000000 0.000000 0.000000 -0.480082 -0.251049 0.560739 -0.000000 0.000000 0.000000 1.392472 -21.118118 -3.708231 0.000000 0.000000 0.000000
